PathFileType	4	(x/y/z)	S02_P20_T45
DataRate	CameraRate	NumFrames	NumMarkers	Units	OrigDataRate	OrigDataStartFrame	OrigNumFrames
240	240	8	51	mm	240	44	347
Frame#	Time	Sternum			R.Acromium			L.Acromium			Top.Head			R.ASIS			L.ASIS			R.PSIS			L.PSIS			R.Great.Tro			L.Great.Tro			R.Iliac.Crest			L.Iliac.Crest			V.Sacral			R.Thigh.Upper.Post			R.Thigh.Lower.Ant			R.Thigh.Lower.Post			R.Thigh.Upper.Ant			R.Knee.Lat			R.Knee.Med			R.Shank.Upper.Post			R.Shank.Lower.Ant			R.Shank.Lower.Post			R.Shank.Upper.Ant			R.Ankle.Lat			R.Ankle.Med			R.Heel.Upper			R.Heel.Med			R.Heel.Lat			R.Toe.Lat			R.Toe.Med			R.Toe.Tip			L.Thigh.Upper.Post			L.Thigh.Lower.Ant			L.Thigh.Lower.Post			L.Thigh.Upper.Ant			L.Knee.Lat			L.Knee.Med			L.Shank.Upper.Post			L.Shank.Lower.Ant			L.Shank.Lower.Post			L.Shank.Upper.Ant			L.Ankle.Lat			L.Ankle.Med			L.Heel.Upper			L.Heel.Med			L.Heel.Lat			L.Toe.Lat			L.Toe.Med			L.Toe.Tip			Cervical.Spine			Back			
		X1	Y1	Z1	X2	Y2	Z2	X3	Y3	Z3	X4	Y4	Z4	X5	Y5	Z5	X6	Y6	Z6	X7	Y7	Z7	X8	Y8	Z8	X9	Y9	Z9	X10	Y10	Z10	X11	Y11	Z11	X12	Y12	Z12	X13	Y13	Z13	X14	Y14	Z14	X15	Y15	Z15	X16	Y16	Z16	X17	Y17	Z17	X18	Y18	Z18	X19	Y19	Z19	X20	Y20	Z20	X21	Y21	Z21	X22	Y22	Z22	X23	Y23	Z23	X24	Y24	Z24	X25	Y25	Z25	X26	Y26	Z26	X27	Y27	Z27	X28	Y28	Z28	X29	Y29	Z29	X30	Y30	Z30	X31	Y31	Z31	X32	Y32	Z32	X33	Y33	Z33	X34	Y34	Z34	X35	Y35	Z35	X36	Y36	Z36	X37	Y37	Z37	X38	Y38	Z38	X39	Y39	Z39	X40	Y40	Z40	X41	Y41	Z41	X42	Y42	Z42	X43	Y43	Z43	X44	Y44	Z44	X45	Y45	Z45	X46	Y46	Z46	X47	Y47	Z47	X48	Y48	Z48	X49	Y49	Z49	X50	Y50	Z50	X51	Y51	Z51	

44	0.17917	-1057.8	1085.8	306.59	-1162.7	1331.4	439.82	-1161.1	1325.1	145.69	-1098.7	1613	284.33	-1109.9	915.36	416.81	-1085.1	914.77	208.13	-1314.8	956.66	350.76	-1322.8	969.23	277.46	-1193.3	795.4	501.86	-1201.8	831.06	112.42	-1217.6	957.85	470.73	-1209	968.12	137.54	-1345.3	915.35	304.61	-1167.4	594.45	504.28	-1101	517.23	486.02	-1172.5	504.02	491.14	-1098.8	606.74	494.85	-1155.6	429.17	487.21	-1143.1	408.43	342.13	-1346.5	359.12	466.91	-1371.7	251.91	451.94	-1407.3	313.21	456.89	-1316.2	293.05	468.93	-1472.9	242.05	446.43	-1441.2	239.68	363.67	-1500.2	291.84	388.41	-1517.8	270.64	354.98	-1536.8	277.28	418.16	-1485.9	122.63	460.59	-1462.3	95.612	357.93	-1421.2	60.132	413.88	-1178.8	592.31	143.85	-1085.3	533.79	156.53	-1159.6	507.07	171.33	-1113.8	621.23	130.35	-1085.6	451.22	172.19	-1090.4	456.67	309.63	-1167.8	283.81	174.87	-1104.1	195.52	199.47	-1172	214.34	191.37	-1105.8	269.27	179.9	-1157.9	97.856	214.16	-1147	95.344	296.59	-1217.4	64.885	249.04	-1209.1	39.629	282.35	-1210.3	37.082	220.71	-1043.8	35.528	193.29	-1024.9	45.402	303.48	-964.56	63.119	256.83	-1241.9	1393.3	292.98	-1322	1143.7	312.09
45	0.18333	-1052.6	1086.7	306.63	-1157.9	1332.4	439.43	-1155.4	1325.8	145.24	-1093.2	1613.9	283.92	-1104.7	916.37	416.52	-1080.1	915.38	207.68	-1309.8	957.52	350.25	-1317.8	970.12	276.98	-1187.8	796.57	501.53	-1197.2	831.8	112.18	-1212.4	958.62	470.3	-1203.8	968.9	137.08	-1340.2	916.2	304.07	-1158.4	595.85	504.48	-1091.3	519.58	486.46	-1162.6	505.48	491.42	-1090.3	609.12	495.19	-1144.4	430.99	487.57	-1131.3	409.98	342.41	-1335.1	361.07	466.63	-1360.2	253.8	451.47	-1395.8	315.14	456.39	-1304.9	294.93	468.68	-1461.4	244.37	445.62	-1429.4	241.57	362.97	-1488.6	293.9	387.11	-1505.9	272.43	353.73	-1525.3	279.53	416.85	-1474.6	125.14	460.61	-1450.6	97.322	358.19	-1410.1	61.652	414.63	-1176.1	593	143.54	-1083.1	533.69	156.26	-1157.7	507.6	170.95	-1110.9	621.39	130.13	-1084.3	451.06	171.96	-1089.4	456.48	309.34	-1167.2	284.02	174.85	-1103.9	195.43	199.25	-1171.4	214.51	191.24	-1105.3	269.18	179.68	-1157.9	97.927	214.13	-1146.9	95.448	296.53	-1217.4	64.954	249.04	-1209	39.739	282.34	-1210.3	37.15	220.71	-1043.8	35.524	193.27	-1024.8	45.445	303.52	-964.49	63.035	256.81	-1236.1	1394.1	292.29	-1316.8	1144.7	311.13
46	0.1875	-1047.4	1087.6	306.67	-1153.1	1333.5	439.06	-1149.6	1326.5	144.8	-1087.7	1614.8	283.52	-1099.5	917.38	416.28	-1075.1	915.98	207.25	-1304.7	958.43	349.75	-1312.8	971.06	276.5	-1182.3	797.8	501.24	-1192.7	832.51	111.96	-1207.2	959.47	469.9	-1198.6	969.67	136.62	-1335.2	917.12	303.57	-1149.5	597.35	504.64	-1081.6	522.04	486.83	-1152.7	507.04	491.64	-1081.9	611.58	495.47	-1133.2	432.93	487.86	-1119.8	411.68	342.63	-1323.9	362.94	466.26	-1348.6	255.57	450.98	-1384.3	316.9	455.82	-1293.6	296.76	468.38	-1449.7	246.4	444.76	-1417.5	243.24	362.22	-1477	295.59	385.77	-1494	273.8	352.43	-1513.7	281.32	415.49	-1462.9	127.36	460.58	-1438.3	98.836	358.39	-1398.5	63.183	415.34	-1173.4	593.71	143.25	-1081	533.59	156.04	-1155.8	508.14	170.6	-1108	621.56	129.95	-1082.9	450.92	171.77	-1088.3	456.32	309.11	-1166.6	284.24	174.83	-1103.7	195.36	199.06	-1170.9	214.66	191.14	-1104.8	269.11	179.49	-1157.8	98	214.12	-1146.8	95.556	296.48	-1217.4	65.028	249.04	-1209	39.851	282.34	-1210.3	37.226	220.71	-1043.8	35.519	193.26	-1024.8	45.477	303.55	-964.42	62.949	256.79	-1230.3	1395	291.63	-1311.6	1145.6	310.19
47	0.19167	-1042.3	1088.5	306.72	-1148.3	1334.6	438.7	-1144	1327.2	144.38	-1082.2	1615.8	283.14	-1094.3	918.42	416.06	-1070	916.56	206.82	-1299.7	959.4	349.27	-1307.8	972.04	276.04	-1176.8	799.06	500.98	-1188.1	833.2	111.77	-1202.1	960.4	469.54	-1193.5	970.43	136.18	-1330.2	918.1	303.1	-1140.7	598.94	504.78	-1072	524.59	487.1	-1142.9	508.7	491.81	-1073.4	614.12	495.67	-1122.1	434.98	488.1	-1108.4	413.52	342.78	-1312.6	364.71	465.79	-1336.9	257.22	450.45	-1372.7	318.49	455.18	-1282.2	298.55	468.03	-1437.9	248.13	443.85	-1405.6	244.68	361.44	-1465.5	296.9	384.4	-1482.1	274.76	351.12	-1502	282.65	414.1	-1450.9	129.28	460.5	-1425.7	100.14	358.51	-1386.5	64.695	416.01	-1170.7	594.42	142.99	-1078.9	533.5	155.86	-1153.9	508.7	170.28	-1105.1	621.73	129.82	-1081.7	450.81	171.61	-1087.3	456.18	308.93	-1166.1	284.46	174.83	-1103.4	195.31	198.88	-1170.5	214.81	191.08	-1104.4	269.05	179.32	-1157.7	98.076	214.11	-1146.7	95.67	296.44	-1217.3	65.11	249.04	-1208.9	39.966	282.34	-1210.3	37.311	220.72	-1043.8	35.513	193.25	-1024.8	45.501	303.57	-964.34	62.86	256.78	-1224.5	1395.8	291	-1306.4	1146.6	309.26
48	0.19583	-1037.1	1089.4	306.77	-1143.5	1335.7	438.35	-1138.3	1327.9	143.98	-1076.7	1616.7	282.77	-1089.2	919.47	415.86	-1065	917.13	206.4	-1294.6	960.42	348.8	-1302.7	973.06	275.59	-1171.4	800.36	500.75	-1183.6	833.87	111.59	-1197	961.43	469.21	-1188.3	971.19	135.74	-1325.2	919.14	302.66	-1131.9	600.62	504.88	-1062.4	527.22	487.3	-1133	510.45	491.94	-1065	616.74	495.81	-1111.1	437.11	488.28	-1097.2	415.48	342.87	-1301.5	366.37	465.24	-1325.2	258.73	449.91	-1361.1	319.87	454.49	-1270.8	300.28	467.63	-1426	249.55	442.92	-1393.5	245.89	360.63	-1454	297.85	383.02	-1470.2	275.32	349.81	-1490.3	283.55	412.7	-1438.5	130.87	460.38	-1412.7	101.23	358.57	-1373.9	66.16	416.63	-1168.1	595.15	142.75	-1076.8	533.42	155.72	-1152	509.27	169.99	-1102.2	621.9	129.72	-1080.4	450.72	171.49	-1086.3	456.06	308.79	-1165.5	284.69	174.83	-1103.2	195.27	198.73	-1170.1	214.96	191.04	-1104	269.02	179.18	-1157.5	98.156	214.11	-1146.6	95.79	296.4	-1217.3	65.2	249.05	-1208.9	40.085	282.35	-1210.3	37.404	220.72	-1043.8	35.504	193.24	-1024.7	45.516	303.58	-964.27	62.77	256.76	-1218.7	1396.7	290.4	-1301.2	1147.6	308.35
49	0.2	-1032	1090.3	306.81	-1138.7	1336.8	438.02	-1132.7	1328.7	143.61	-1071.2	1617.7	282.43	-1084	920.54	415.67	-1060	917.69	205.99	-1289.4	961.5	348.35	-1297.7	974.11	275.15	-1165.9	801.69	500.54	-1179	834.52	111.43	-1192	962.54	468.9	-1183.2	971.93	135.32	-1320.2	920.23	302.26	-1123.2	602.37	504.95	-1052.8	529.93	487.41	-1123.2	512.28	492.03	-1056.6	619.41	495.87	-1100.1	439.32	488.39	-1086.2	417.57	342.9	-1290.3	367.9	464.61	-1313.4	260.1	449.34	-1349.4	321.05	453.74	-1259.4	301.92	467.2	-1414	250.66	441.96	-1381.3	246.86	359.8	-1442.5	298.43	381.64	-1458.2	275.5	348.5	-1478.4	284	411.32	-1425.7	132.15	460.22	-1399.3	102.09	358.55	-1361	67.551	417.19	-1165.5	595.88	142.55	-1074.7	533.34	155.62	-1150.2	509.85	169.73	-1099.3	622.07	129.65	-1079.2	450.65	171.39	-1085.3	455.96	308.7	-1165	284.93	174.83	-1103	195.26	198.6	-1169.7	215.12	191.02	-1103.6	269.01	179.05	-1157.4	98.24	214.12	-1146.5	95.917	296.36	-1217.3	65.297	249.06	-1208.8	40.209	282.35	-1210.2	37.506	220.73	-1043.7	35.494	193.24	-1024.7	45.525	303.59	-964.19	62.679	256.74	-1212.9	1397.5	289.83	-1296	1148.6	307.44
50	0.20417	-1026.9	1091.1	306.86	-1133.8	1337.9	437.69	-1127	1329.4	143.25	-1065.6	1618.6	282.11	-1078.9	921.63	415.46	-1055.1	918.25	205.58	-1284.2	962.62	347.93	-1292.6	975.18	274.73	-1160.4	803.04	500.36	-1174.5	835.15	111.28	-1187.1	963.73	468.6	-1178.1	972.66	134.9	-1315.1	921.37	301.9	-1114.5	604.19	504.99	-1043.3	532.71	487.44	-1113.3	514.18	492.07	-1048.2	622.14	495.86	-1089.2	441.6	488.44	-1075.3	419.77	342.87	-1279.3	369.29	463.92	-1301.5	261.32	448.76	-1337.7	322.02	452.96	-1247.9	303.49	466.72	-1401.9	251.46	441	-1369.1	247.59	358.96	-1431	298.66	380.28	-1446.2	275.3	347.22	-1466.5	284.04	409.95	-1412.6	133.1	460.02	-1385.7	102.72	358.46	-1347.6	68.845	417.67	-1162.9	596.62	142.37	-1072.7	533.27	155.54	-1148.4	510.44	169.5	-1096.5	622.25	129.61	-1078	450.6	171.31	-1084.3	455.89	308.64	-1164.5	285.17	174.84	-1102.8	195.26	198.48	-1169.3	215.29	191.02	-1103.1	269.02	178.95	-1157.3	98.33	214.13	-1146.4	96.053	296.32	-1217.2	65.404	249.07	-1208.7	40.339	282.35	-1210.2	37.618	220.74	-1043.7	35.483	193.24	-1024.7	45.529	303.59	-964.11	62.586	256.72	-1207.2	1398.4	289.27	-1290.8	1149.6	306.55
51	0.20833	-1021.8	1091.9	306.89	-1129	1339	437.36	-1121.4	1330.2	142.91	-1060.1	1619.5	281.8	-1073.7	922.74	415.24	-1050.1	918.8	205.17	-1279	963.78	347.53	-1287.5	976.28	274.33	-1154.9	804.4	500.19	-1170.1	835.76	111.14	-1182.1	965	468.3	-1173	973.38	134.5	-1310.1	922.55	301.58	-1105.9	606.06	505	-1033.8	535.54	487.39	-1103.5	516.14	492.08	-1039.9	624.91	495.78	-1078.4	443.92	488.43	-1064.5	422.06	342.79	-1268.2	370.54	463.16	-1289.6	262.38	448.17	-1326	322.76	452.13	-1236.3	304.95	466.2	-1389.7	251.94	440.03	-1356.8	248.07	358.1	-1419.4	298.54	378.95	-1434.1	274.74	345.97	-1454.5	283.66	408.63	-1399.2	133.72	459.77	-1371.7	103.12	358.3	-1333.8	70.019	418.06	-1160.3	597.36	142.22	-1070.7	533.2	155.49	-1146.6	511.04	169.3	-1093.6	622.41	129.6	-1076.8	450.56	171.25	-1083.3	455.84	308.63	-1163.9	285.43	174.85	-1102.6	195.28	198.38	-1168.9	215.48	191.02	-1102.7	269.04	178.86	-1157.1	98.426	214.14	-1146.3	96.198	296.28	-1217.2	65.52	249.08	-1208.7	40.476	282.36	-1210.2	37.738	220.74	-1043.7	35.47	193.24	-1024.6	45.529	303.58	-964.03	62.493	256.69	-1201.5	1399.3	288.74	-1285.7	1150.6	305.68
